<svg width="24" height="24" viewBox="0 0 24 24" fill="none" xmlns="http://www.w3.org/2000/svg">
<g id="Icon/Add">
<path id="Union" fill-rule="evenodd" clip-rule="evenodd" d="M12.4678 5C12.4678 4.74112 12.2579 4.53125 11.999 4.53125C11.7401 4.53125 11.5303 4.74112 11.5303 5V11.5303H5C4.74112 11.5303 4.53125 11.7401 4.53125 11.999C4.53125 12.2579 4.74112 12.4678 5 12.4678H11.5303V19C11.5303 19.2589 11.7401 19.4688 11.999 19.4688C12.2579 19.4688 12.4678 19.2589 12.4678 19V12.4678H19C19.2589 12.4678 19.4688 12.2579 19.4688 11.999C19.4688 11.7401 19.2589 11.5303 19 11.5303H12.4678V5Z" fill="#403F32"/>
</g>
</svg>
