<svg width="24" height="24" viewBox="0 0 24 24" fill="none" xmlns="http://www.w3.org/2000/svg">
<path fill-rule="evenodd" clip-rule="evenodd" d="M11.2803 6.28033C11.5732 5.98744 11.5732 5.51256 11.2803 5.21967C10.9874 4.92678 10.5126 4.92678 10.2197 5.21967L4.21967 11.2197C4.14776 11.2916 4.09351 11.3745 4.05691 11.4629C4.02024 11.5513 4 11.6483 4 11.75C4 11.8517 4.02024 11.9487 4.05691 12.0371C4.05857 12.0411 4.06026 12.0451 4.062 12.0491C4.09847 12.133 4.15102 12.2117 4.21967 12.2803L10.2197 18.2803C10.5126 18.5732 10.9874 18.5732 11.2803 18.2803C11.5732 17.9874 11.5732 17.5126 11.2803 17.2197L6.56066 12.5H18.75C19.1642 12.5 19.5 12.1642 19.5 11.75C19.5 11.3358 19.1642 11 18.75 11H6.56066L11.2803 6.28033Z" fill="#403F32"/>
</svg>
