<svg width="24" height="25" viewBox="0 0 24 25" fill="none" xmlns="http://www.w3.org/2000/svg">
<g id="brand-whatsapp">
<path id="Vector" d="M9 10.323C9 10.4556 9.05268 10.5828 9.14645 10.6766C9.24021 10.7703 9.36739 10.823 9.5 10.823C9.63261 10.823 9.75979 10.7703 9.85355 10.6766C9.94732 10.5828 10 10.4556 10 10.323V9.323C10 9.19039 9.94732 9.06321 9.85355 8.96944C9.75979 8.87568 9.63261 8.823 9.5 8.823C9.36739 8.823 9.24021 8.87568 9.14645 8.96944C9.05268 9.06321 9 9.19039 9 9.323V10.323ZM9 10.323C9 11.6491 9.52678 12.9209 10.4645 13.8585C11.4021 14.7962 12.6739 15.323 14 15.323M14 15.323H15C15.1326 15.323 15.2598 15.2703 15.3536 15.1766C15.4473 15.0828 15.5 14.9556 15.5 14.823C15.5 14.6904 15.4473 14.5632 15.3536 14.4694C15.2598 14.3757 15.1326 14.323 15 14.323H14C13.8674 14.323 13.7402 14.3757 13.6464 14.4694C13.5527 14.5632 13.5 14.6904 13.5 14.823C13.5 14.9556 13.5527 15.0828 13.6464 15.1766C13.7402 15.2703 13.8674 15.323 14 15.323ZM3 21.323L4.65 17.523C3.38766 15.731 2.82267 13.54 3.06104 11.3611C3.29942 9.18214 4.32479 7.16511 5.94471 5.68849C7.56463 4.21187 9.66775 3.37718 11.8594 3.34107C14.051 3.30495 16.1805 4.06989 17.8482 5.49234C19.5159 6.91478 20.6071 8.89694 20.9172 11.0668C21.2272 13.2367 20.7347 15.4452 19.5321 17.2777C18.3295 19.1103 16.4994 20.441 14.3854 21.0201C12.2713 21.5992 10.0186 21.3868 8.05 20.423L3 21.323Z" stroke="#403F32" stroke-width="1.3" stroke-linecap="round" stroke-linejoin="round"/>
</g>
</svg>
