<svg width="24" height="25" viewBox="0 0 24 25" fill="none" xmlns="http://www.w3.org/2000/svg">
<path d="M9 10.325C9 10.4576 9.05268 10.5847 9.14645 10.6785C9.24021 10.7723 9.36739 10.825 9.5 10.825C9.63261 10.825 9.75979 10.7723 9.85355 10.6785C9.94732 10.5847 10 10.4576 10 10.325V9.32495C10 9.19234 9.94732 9.06517 9.85355 8.9714C9.75979 8.87763 9.63261 8.82495 9.5 8.82495C9.36739 8.82495 9.24021 8.87763 9.14645 8.9714C9.05268 9.06517 9 9.19234 9 9.32495V10.325ZM9 10.325C9 11.651 9.52678 12.9228 10.4645 13.8605C11.4021 14.7982 12.6739 15.325 14 15.325M14 15.325H15C15.1326 15.325 15.2598 15.2723 15.3536 15.1785C15.4473 15.0847 15.5 14.9576 15.5 14.825C15.5 14.6923 15.4473 14.5652 15.3536 14.4714C15.2598 14.3776 15.1326 14.325 15 14.325H14C13.8674 14.325 13.7402 14.3776 13.6464 14.4714C13.5527 14.5652 13.5 14.6923 13.5 14.825C13.5 14.9576 13.5527 15.0847 13.6464 15.1785C13.7402 15.2723 13.8674 15.325 14 15.325ZM3 21.3249L4.65 17.5249C3.38766 15.733 2.82267 13.542 3.06104 11.363C3.29942 9.1841 4.32479 7.16706 5.94471 5.69044C7.56463 4.21382 9.66775 3.37913 11.8594 3.34302C14.051 3.30691 16.1805 4.07185 17.8482 5.49429C19.5159 6.91674 20.6071 8.8989 20.9172 11.0688C21.2272 13.2387 20.7347 15.4471 19.5321 17.2797C18.3295 19.1123 16.4994 20.4429 14.3854 21.022C12.2713 21.6011 10.0186 21.3888 8.05 20.4249L3 21.3249Z" stroke="#354052" stroke-width="2" stroke-linecap="round" stroke-linejoin="round"/>
</svg>
