<svg width="24" height="25" viewBox="0 0 24 25" fill="none" xmlns="http://www.w3.org/2000/svg">
<path d="M14 19.3252H10C7.87827 19.3252 5.84344 18.4823 4.34315 16.982C2.84285 15.4818 2 13.4469 2 11.3252V6.3252H6V11.3252C6 12.3861 6.42143 13.4035 7.17157 14.1536C7.92172 14.9038 8.93913 15.3252 10 15.3252V6.3252H14V10.8252H14.03C15.126 10.6884 16.1343 10.1561 16.8654 9.32812C17.5965 8.50018 18 7.43371 18 6.3292H22L21.658 8.0402C21.4532 9.06428 21.0171 10.0281 20.3832 10.858C19.7493 11.688 18.9341 12.3622 18 12.8292C18.9083 13.1318 19.7186 13.6731 20.346 14.3963C20.9734 15.1196 21.3947 15.9982 21.566 16.9402L22 19.3292H18C18 18.2247 17.5965 17.1582 16.8654 16.3303C16.1343 15.5023 15.126 14.9699 14.03 14.8332V19.3332L14 19.3252Z" stroke="#354052" stroke-width="2" stroke-linecap="round" stroke-linejoin="round"/>
</svg>
