<svg xmlns="http://www.w3.org/2000/svg" width="25" height="24" fill="none"><path fill="#726E38" fill-rule="evenodd" d="M9.719 5.083c0-.188.093-.569.46-.908.354-.328 1.03-.675 2.29-.675 1.259 0 1.935.347 2.29.675.366.34.46.72.46.908v1.878h-5.5V5.083Zm-1.5 0c0-.59.256-1.375.94-2.008C9.854 2.43 10.928 2 12.47 2c1.54 0 2.614.431 3.31 1.075.683.633.94 1.418.94 2.008v1.878h2.832a.75.75 0 0 1 .75.75v11.033a2.32 2.32 0 0 1-.687 1.647c-.44.436-1.034.68-1.652.68H6.839a2.345 2.345 0 0 1-1.652-.68 2.32 2.32 0 0 1-.687-1.647V7.711a.75.75 0 0 1 .75-.75h2.969V5.083Zm0 5.833V8.461H6v10.283a.82.82 0 0 0 .244.582c.156.156.37.244.595.244h11.123a.846.846 0 0 0 .595-.244.82.82 0 0 0 .244-.582V8.461h-2.082v2.455h-1.5V8.461h-5.5v2.455h-1.5Z" clip-rule="evenodd"/></svg>