<svg xmlns="http://www.w3.org/2000/svg" width="24" height="24" fill="none"><path fill="#FFFEF7" fill-rule="evenodd" d="M4.5 4.75a.25.25 0 0 1 .25-.25h4a.25.25 0 0 1 .25.25v4a.25.25 0 0 1-.25.25h-4a.25.25 0 0 1-.25-.25v-4ZM4.75 3A1.75 1.75 0 0 0 3 4.75v4c0 .966.784 1.75 1.75 1.75h4a1.75 1.75 0 0 0 1.75-1.75v-4A1.75 1.75 0 0 0 8.75 3h-4Zm9.75 1.75a.25.25 0 0 1 .25-.25h4a.25.25 0 0 1 .25.25v4a.25.25 0 0 1-.25.25h-4a.25.25 0 0 1-.25-.25v-4ZM14.75 3A1.75 1.75 0 0 0 13 4.75v4c0 .966.784 1.75 1.75 1.75h4a1.75 1.75 0 0 0 1.75-1.75v-4A1.75 1.75 0 0 0 18.75 3h-4Zm-10 11.5a.25.25 0 0 0-.25.25v4c0 .138.112.25.25.25h4a.25.25 0 0 0 .25-.25v-4a.25.25 0 0 0-.25-.25h-4ZM3 14.75c0-.966.784-1.75 1.75-1.75h4c.966 0 1.75.784 1.75 1.75v4a1.75 1.75 0 0 1-1.75 1.75h-4A1.75 1.75 0 0 1 3 18.75v-4Zm11.5 0a.25.25 0 0 1 .25-.25h4a.25.25 0 0 1 .25.25v4a.25.25 0 0 1-.25.25h-4a.25.25 0 0 1-.25-.25v-4Zm.25-1.75A1.75 1.75 0 0 0 13 14.75v4c0 .966.784 1.75 1.75 1.75h4a1.75 1.75 0 0 0 1.75-1.75v-4A1.75 1.75 0 0 0 18.75 13h-4Z" clip-rule="evenodd"/></svg>