<svg width="24" height="24" viewBox="0 0 24 24" fill="none" xmlns="http://www.w3.org/2000/svg">
<g id="Icon/layout-grid">
<path id="Union" fill-rule="evenodd" clip-rule="evenodd" d="M4.5 4.75C4.5 4.61193 4.61193 4.5 4.75 4.5H8.75C8.88807 4.5 9 4.61193 9 4.75V8.75C9 8.88807 8.88807 9 8.75 9H4.75C4.61193 9 4.5 8.88807 4.5 8.75V4.75ZM4.75 3C3.7835 3 3 3.7835 3 4.75V8.75C3 9.7165 3.7835 10.5 4.75 10.5H8.75C9.7165 10.5 10.5 9.7165 10.5 8.75V4.75C10.5 3.7835 9.7165 3 8.75 3H4.75ZM14.5 4.75C14.5 4.61193 14.6119 4.5 14.75 4.5H18.75C18.8881 4.5 19 4.61193 19 4.75V8.75C19 8.88807 18.8881 9 18.75 9H14.75C14.6119 9 14.5 8.88807 14.5 8.75V4.75ZM14.75 3C13.7835 3 13 3.7835 13 4.75V8.75C13 9.7165 13.7835 10.5 14.75 10.5H18.75C19.7165 10.5 20.5 9.7165 20.5 8.75V4.75C20.5 3.7835 19.7165 3 18.75 3H14.75ZM4.75 14.5C4.61193 14.5 4.5 14.6119 4.5 14.75V18.75C4.5 18.8881 4.61193 19 4.75 19H8.75C8.88807 19 9 18.8881 9 18.75V14.75C9 14.6119 8.88807 14.5 8.75 14.5H4.75ZM3 14.75C3 13.7835 3.7835 13 4.75 13H8.75C9.7165 13 10.5 13.7835 10.5 14.75V18.75C10.5 19.7165 9.7165 20.5 8.75 20.5H4.75C3.7835 20.5 3 19.7165 3 18.75V14.75ZM14.5 14.75C14.5 14.6119 14.6119 14.5 14.75 14.5H18.75C18.8881 14.5 19 14.6119 19 14.75V18.75C19 18.8881 18.8881 19 18.75 19H14.75C14.6119 19 14.5 18.8881 14.5 18.75V14.75ZM14.75 13C13.7835 13 13 13.7835 13 14.75V18.75C13 19.7165 13.7835 20.5 14.75 20.5H18.75C19.7165 20.5 20.5 19.7165 20.5 18.75V14.75C20.5 13.7835 19.7165 13 18.75 13H14.75Z" fill="#403F32"/>
</g>
</svg>
