<svg width="100" height="100" viewBox="0 0 100 100" fill="none" xmlns="http://www.w3.org/2000/svg">
<g clip-path="url(#clip0_154_1199)">
<path fill-rule="evenodd" clip-rule="evenodd" d="M50 93.75C61.6032 93.75 72.7312 89.1406 80.9359 80.9359C89.1406 72.7312 93.75 61.6032 93.75 50C93.75 38.3968 89.1406 27.2688 80.9359 19.0641C72.7312 10.8594 61.6032 6.25 50 6.25C38.3968 6.25 27.2688 10.8594 19.0641 19.0641C10.8594 27.2688 6.25 38.3968 6.25 50C6.25 61.6032 10.8594 72.7312 19.0641 80.9359C27.2688 89.1406 38.3968 93.75 50 93.75ZM50 100C63.2608 100 75.9785 94.7322 85.3553 85.3553C94.7322 75.9785 100 63.2608 100 50C100 36.7392 94.7322 24.0215 85.3553 14.6447C75.9785 5.26784 63.2608 0 50 0C36.7392 0 24.0215 5.26784 14.6447 14.6447C5.26784 24.0215 0 36.7392 0 50C0 63.2608 5.26784 75.9785 14.6447 85.3553C24.0215 94.7322 36.7392 100 50 100Z" fill="#56B280" fill-opacity="0.6"/>
<path fill-rule="evenodd" clip-rule="evenodd" d="M68.5607 31.0625C69.4354 30.1955 70.6161 29.7075 71.8477 29.7041C73.0793 29.7007 74.2628 30.1822 75.1423 31.0444C76.0217 31.9066 76.5265 33.0803 76.5475 34.3117C76.5685 35.5431 76.104 36.7334 75.2544 37.625L50.3044 68.8125C49.8756 69.2744 49.3581 69.6451 48.7828 69.9023C48.2074 70.1596 47.5861 70.2982 46.956 70.3099C46.3259 70.3216 45.6999 70.2061 45.1154 69.9703C44.5309 69.7345 44 69.3832 43.5544 68.9375L27.0232 52.4C26.5626 51.9709 26.1932 51.4534 25.937 50.8784C25.6808 50.3034 25.5431 49.6827 25.532 49.0533C25.5209 48.4239 25.6367 47.7987 25.8724 47.2151C26.1082 46.6314 26.4591 46.1012 26.9042 45.6561C27.3493 45.2109 27.8795 44.86 28.4632 44.6243C29.0469 44.3885 29.6721 44.2727 30.3014 44.2838C30.9308 44.295 31.5515 44.4327 32.1265 44.6889C32.7015 44.9451 33.219 45.3145 33.6482 45.775L46.7357 58.8563L68.4419 31.2C68.4807 31.1516 68.5224 31.1057 68.5669 31.0625H68.5607Z" fill="#56B280" fill-opacity="0.6"/>
</g>
<defs>
<clipPath id="clip0_154_1199">
<rect width="100" height="100" fill="white"/>
</clipPath>
</defs>
</svg>
