<svg width="14" height="14" viewBox="0 0 14 14" fill="none" xmlns="http://www.w3.org/2000/svg">
<path fill-rule="evenodd" clip-rule="evenodd" d="M10.8977 3.89775C11.1174 3.67808 11.1174 3.32192 10.8977 3.10225C10.678 2.88258 10.3219 2.88258 10.1022 3.10225L6.99997 6.2045L3.89772 3.10225C3.67805 2.88258 3.32189 2.88258 3.10222 3.10225C2.88255 3.32192 2.88255 3.67808 3.10222 3.89775L6.20447 7L3.10222 10.1023C2.88255 10.3219 2.88255 10.6781 3.10222 10.8977C3.32189 11.1174 3.67805 11.1174 3.89772 10.8977L6.99997 7.79549L10.1022 10.8977C10.3219 11.1174 10.678 11.1174 10.8977 10.8977C11.1174 10.6781 11.1174 10.3219 10.8977 10.1023L7.79546 7L10.8977 3.89775Z" fill="#121212"/>
</svg>
