<svg width="14" height="14" viewBox="0 0 14 14" fill="none" xmlns="http://www.w3.org/2000/svg">
<g id="Icon/close">
<path id="Union" fill-rule="evenodd" clip-rule="evenodd" d="M10.8977 3.89775C11.1174 3.67808 11.1174 3.32192 10.8977 3.10225C10.6781 2.88258 10.3219 2.88258 10.1023 3.10225L7 6.2045L3.89775 3.10225C3.67808 2.88258 3.32192 2.88258 3.10225 3.10225C2.88258 3.32192 2.88258 3.67808 3.10225 3.89775L6.2045 7L3.10225 10.1023C2.88258 10.3219 2.88258 10.6781 3.10225 10.8977C3.32192 11.1174 3.67808 11.1174 3.89775 10.8977L7 7.79549L10.1023 10.8977C10.3219 11.1174 10.6781 11.1174 10.8977 10.8977C11.1174 10.6781 11.1174 10.3219 10.8977 10.1023L7.79549 7L10.8977 3.89775Z" fill="#726E38"/>
</g>
</svg>
