<svg width="14" height="14" viewBox="0 0 14 14" fill="none" xmlns="http://www.w3.org/2000/svg">
<g id="Icon/close">
<path id="Union" fill-rule="evenodd" clip-rule="evenodd" d="M10.8094 3.80936C10.9802 3.6385 10.9802 3.3615 10.8094 3.19064C10.6385 3.01979 10.3615 3.01979 10.1906 3.19064L7 6.38128L3.80936 3.19064C3.6385 3.01979 3.3615 3.01979 3.19064 3.19064C3.01979 3.3615 3.01979 3.6385 3.19064 3.80936L6.38128 7L3.19064 10.1906C3.01979 10.3615 3.01979 10.6385 3.19064 10.8094C3.3615 10.9802 3.6385 10.9802 3.80936 10.8094L7 7.61872L10.1906 10.8094C10.3615 10.9802 10.6385 10.9802 10.8094 10.8094C10.9802 10.6385 10.9802 10.3615 10.8094 10.1906L7.61872 7L10.8094 3.80936Z" fill="#605F5F"/>
</g>
</svg>
