<svg xmlns="http://www.w3.org/2000/svg" width="24" height="24" fill="none"><path fill="#403F32" fill-rule="evenodd" d="M9.573 3.573A.25.25 0 0 1 9.75 3.5h4a.25.25 0 0 1 .25.25V6H9.5V3.75a.25.25 0 0 1 .073-.177ZM8 6V3.75A1.75 1.75 0 0 1 9.75 2h4a1.75 1.75 0 0 1 1.75 1.75V6h4.25a.75.75 0 0 1 0 1.5h-.31l-.94 11.284a2.75 2.75 0 0 1-2.75 2.716h-8A2.75 2.75 0 0 1 5 18.784L4.06 7.5h-.31a.75.75 0 0 1 0-1.5H8Zm6.75 1.5H5.565l.932 11.188c.002.02.003.041.003.062A1.25 1.25 0 0 0 7.75 20h8A1.25 1.25 0 0 0 17 18.75c0-.02 0-.042.003-.062L17.935 7.5H14.75Zm-5 2.5a.75.75 0 0 1 .75.75v6a.75.75 0 0 1-1.5 0v-6a.75.75 0 0 1 .75-.75Zm4.75.75a.75.75 0 0 0-1.5 0v6a.75.75 0 0 0 1.5 0v-6Z" clip-rule="evenodd"/></svg>