<svg width="24" height="24" viewBox="0 0 24 24" fill="none" xmlns="http://www.w3.org/2000/svg">
<path fill-rule="evenodd" clip-rule="evenodd" d="M1.99844 4.39844C1.66707 4.39844 1.39844 4.66707 1.39844 4.99844C1.39844 5.32981 1.66707 5.59844 1.99844 5.59844H12.3984V5.99844V10.9984V16.3984H9.52887C9.258 15.2518 8.22787 14.3984 6.99844 14.3984C5.769 14.3984 4.73888 15.2518 4.46801 16.3984H3.59844V12.9984C3.59844 12.6671 3.32981 12.3984 2.99844 12.3984C2.66707 12.3984 2.39844 12.6671 2.39844 12.9984V16.9984C2.39844 17.3298 2.66707 17.5984 2.99844 17.5984H4.46801C4.73888 18.7451 5.769 19.5984 6.99844 19.5984C8.22787 19.5984 9.258 18.7451 9.52887 17.5984H12.9984H14.468C14.7389 18.7451 15.769 19.5984 16.9984 19.5984C18.2279 19.5984 19.258 18.7451 19.5289 17.5984H20.9984C21.3298 17.5984 21.5984 17.3298 21.5984 16.9984V11.0083C21.5994 10.9515 21.5924 10.8942 21.5768 10.8382C21.5613 10.7822 21.5379 10.7295 21.5079 10.6813L18.5129 5.68974C18.4045 5.50902 18.2092 5.39844 17.9984 5.39844H13.5984V4.99844C13.5984 4.66707 13.3298 4.39844 12.9984 4.39844H1.99844ZM19.5289 16.3984H20.3984V11.5984H13.5984V16.3984H14.468C14.7389 15.2518 15.769 14.3984 16.9984 14.3984C18.2279 14.3984 19.258 15.2518 19.5289 16.3984ZM15.5984 16.9984C15.5984 16.2252 16.2252 15.5984 16.9984 15.5984C17.7716 15.5984 18.3984 16.2252 18.3984 16.9984C18.3984 17.7716 17.7716 18.3984 16.9984 18.3984C16.2252 18.3984 15.5984 17.7716 15.5984 16.9984ZM5.59844 16.9984C5.59844 17.7716 6.22524 18.3984 6.99844 18.3984C7.77164 18.3984 8.39844 17.7716 8.39844 16.9984C8.39844 16.2252 7.77164 15.5984 6.99844 15.5984C6.22524 15.5984 5.59844 16.2252 5.59844 16.9984ZM13.5984 10.3984V6.59844H17.6587L19.9387 10.3984H13.5984Z" fill="#403F32"/>
</svg>
