<svg width="24" height="24" viewBox="0 0 24 24" fill="none" xmlns="http://www.w3.org/2000/svg">
<path d="M19.5044 12.5773L12.0083 20L4.51221 12.5773C4.01777 12.0962 3.62831 11.5181 3.36835 10.8791C3.10839 10.2402 2.98357 9.5544 3.00173 8.86487C3.0199 8.17535 3.18067 7.49705 3.47391 6.8727C3.76715 6.24834 4.18652 5.69146 4.7056 5.23711C5.22468 4.78275 5.83223 4.44078 6.49 4.23272C7.14776 4.02466 7.84149 3.95502 8.5275 4.02819C9.21351 4.10135 9.87693 4.31574 10.476 4.65784C11.0751 4.99995 11.5968 5.46236 12.0083 6.01597C12.4216 5.46638 12.944 5.00801 13.5426 4.66953C14.1413 4.33106 14.8034 4.11977 15.4875 4.04889C16.1715 3.97801 16.8629 4.04907 17.5182 4.25762C18.1736 4.46616 18.7788 4.8077 19.2961 5.26087C19.8134 5.71404 20.2315 6.26907 20.5243 6.89124C20.8172 7.5134 20.9784 8.1893 20.998 8.87664C21.0175 9.56397 20.895 10.2479 20.638 10.8857C20.381 11.5236 19.9951 12.1015 19.5044 12.5833" stroke="#403F32" stroke-width="1.5" stroke-linecap="round" stroke-linejoin="round"/>
</svg>
