<svg width="24" height="24" viewBox="0 0 24 24" fill="none" xmlns="http://www.w3.org/2000/svg">
<path d="M12 6.32422C12 6.85465 12.2107 7.36336 12.5858 7.73843C12.9609 8.11351 13.4696 8.32422 14 8.32422C14.5304 8.32422 15.0391 8.11351 15.4142 7.73843C15.7893 7.36336 16 6.85465 16 6.32422M12 6.32422C12 5.79379 12.2107 5.28508 12.5858 4.91001C12.9609 4.53493 13.4696 4.32422 14 4.32422C14.5304 4.32422 15.0391 4.53493 15.4142 4.91001C15.7893 5.28508 16 5.79379 16 6.32422M12 6.32422H4M16 6.32422H20M6 12.3242C6 12.8547 6.21071 13.3634 6.58579 13.7384C6.96086 14.1135 7.46957 14.3242 8 14.3242C8.53043 14.3242 9.03914 14.1135 9.41421 13.7384C9.78929 13.3634 10 12.8547 10 12.3242M6 12.3242C6 11.7938 6.21071 11.2851 6.58579 10.91C6.96086 10.5349 7.46957 10.3242 8 10.3242C8.53043 10.3242 9.03914 10.5349 9.41421 10.91C9.78929 11.2851 10 11.7938 10 12.3242M6 12.3242H4M10 12.3242H20M15 18.3242C15 18.8547 15.2107 19.3634 15.5858 19.7384C15.9609 20.1135 16.4696 20.3242 17 20.3242C17.5304 20.3242 18.0391 20.1135 18.4142 19.7384C18.7893 19.3634 19 18.8547 19 18.3242M15 18.3242C15 17.7938 15.2107 17.2851 15.5858 16.91C15.9609 16.5349 16.4696 16.3242 17 16.3242C17.5304 16.3242 18.0391 16.5349 18.4142 16.91C18.7893 17.2851 19 17.7938 19 18.3242M15 18.3242H4M19 18.3242H20" stroke="#726E38" stroke-width="1.5" stroke-linecap="round" stroke-linejoin="round"/>
</svg>
