<svg width="24" height="24" viewBox="0 0 24 24" fill="none" xmlns="http://www.w3.org/2000/svg">
<path d="M18.8791 12.8892L12.0076 19.5L5.13619 12.8892M5.13619 12.8892C4.68296 12.4607 4.32595 11.9458 4.08766 11.3767C3.84936 10.8077 3.73494 10.1969 3.75159 9.58278C3.76824 8.96867 3.91561 8.36456 4.18442 7.8085C4.45322 7.25243 4.83764 6.75645 5.31347 6.3518C5.78929 5.94714 6.34621 5.64257 6.94917 5.45727C7.55212 5.27197 8.18804 5.20994 8.81688 5.27511C9.44572 5.34027 10.0539 5.53121 10.603 5.83589C11.1521 6.14058 11.6304 6.55242 12.0076 7.04547C12.3865 6.556 12.8653 6.14776 13.4141 5.8463C13.9628 5.54485 14.5698 5.35667 15.1968 5.29354C15.8239 5.23042 16.4577 5.2937 17.0584 5.47944C17.6591 5.66517 18.2139 5.96936 18.6881 6.37296C19.1622 6.77657 19.5455 7.27089 19.814 7.82501C20.0824 8.37912 20.2302 8.9811 20.2481 9.59326C20.2661 10.2054 20.1537 10.8146 19.9182 11.3826C19.6826 11.9507 19.3288 12.4654 18.8791 12.8945" stroke="#121212" stroke-width="1.5" stroke-linecap="round" stroke-linejoin="round"/>
</svg>
