<svg width="24" height="24" viewBox="0 0 24 24" fill="none" xmlns="http://www.w3.org/2000/svg">
<path d="M18.8791 12.8892L12.0077 19.5L5.13626 12.8892M5.13626 12.8892C4.68302 12.4607 4.32601 11.9458 4.08772 11.3767C3.84942 10.8077 3.735 10.1969 3.75165 9.58278C3.7683 8.96867 3.91567 8.36456 4.18448 7.8085C4.45328 7.25243 4.8377 6.75645 5.31353 6.3518C5.78935 5.94714 6.34628 5.64257 6.94923 5.45727C7.55218 5.27197 8.1881 5.20994 8.81694 5.27511C9.44578 5.34027 10.0539 5.53121 10.6031 5.83589C11.1522 6.14058 11.6305 6.55242 12.0077 7.04547C12.3866 6.556 12.8654 6.14776 13.4141 5.8463C13.9629 5.54485 14.5698 5.35667 15.1969 5.29354C15.824 5.23042 16.4577 5.2937 17.0585 5.47944C17.6592 5.66517 18.214 5.96936 18.6882 6.37296C19.1623 6.77657 19.5456 7.27089 19.814 7.82501C20.0825 8.37912 20.2303 8.9811 20.2482 9.59326C20.2661 10.2054 20.1538 10.8146 19.9182 11.3826C19.6826 11.9507 19.3289 12.4654 18.8791 12.8945" fill="black"/>
<path d="M18.8791 12.8892L12.0077 19.5L5.13626 12.8892M5.13626 12.8892C4.68302 12.4607 4.32601 11.9458 4.08772 11.3767C3.84942 10.8077 3.735 10.1969 3.75165 9.58278C3.7683 8.96867 3.91567 8.36456 4.18448 7.8085C4.45328 7.25243 4.8377 6.75645 5.31353 6.3518C5.78935 5.94714 6.34628 5.64257 6.94923 5.45727C7.55218 5.27197 8.1881 5.20994 8.81694 5.27511C9.44578 5.34027 10.0539 5.53121 10.6031 5.83589C11.1522 6.14058 11.6305 6.55242 12.0077 7.04547C12.3866 6.556 12.8654 6.14776 13.4141 5.8463C13.9629 5.54485 14.5698 5.35667 15.1969 5.29354C15.824 5.23042 16.4577 5.2937 17.0585 5.47944C17.6592 5.66517 18.214 5.96936 18.6882 6.37296C19.1623 6.77657 19.5456 7.27089 19.814 7.82501C20.0825 8.37912 20.2303 8.9811 20.2482 9.59326C20.2661 10.2054 20.1538 10.8146 19.9182 11.3826C19.6826 11.9507 19.3289 12.4654 18.8791 12.8945" stroke="#121212" stroke-width="1.5" stroke-linecap="round" stroke-linejoin="round"/>
</svg>
