<svg width="159" height="52" viewBox="0 0 159 52" fill="none" xmlns="http://www.w3.org/2000/svg">
<path fill-rule="evenodd" clip-rule="evenodd" d="M13.5312 41.5118C10.1233 38.8032 8.01848 35.4331 7.21663 31.4016H50.3159C50.4496 30.0157 50.5164 28.9449 50.5164 28.189C50.5164 23.8425 49.3805 19.874 47.1086 16.2835C44.8366 12.6299 41.7629 9.73228 37.8873 7.59055C34.0117 5.44882 29.802 4.37795 25.2582 4.37795C20.7144 4.37795 16.5047 5.44882 12.6291 7.59055C8.7535 9.73228 5.67975 12.6299 3.40785 16.2835C1.13595 19.874 0 23.8425 0 28.189C0 32.4724 1.13595 36.4409 3.40785 40.0945C5.67975 43.748 8.7535 46.6457 12.6291 48.7874C16.5047 50.9291 20.7144 52 25.2582 52C29.7352 52 33.8781 50.9606 37.6868 48.8819C41.4956 46.8032 44.536 44.0315 46.8079 40.5669L40.8942 37.3543C39.2237 39.874 37.0186 41.8583 34.279 43.3071C31.5393 44.7559 28.5324 45.4803 25.2582 45.4803C20.848 45.4803 16.939 44.1575 13.5312 41.5118ZM16.6383 12.7874C19.4448 11.4646 22.3181 10.8031 25.2582 10.8031C28.2651 10.8031 31.1384 11.4646 33.8781 12.7874C36.6845 14.0472 38.9564 15.811 40.6938 18.0787C42.4311 20.2835 43.2998 22.6772 43.2998 25.2598H7.21663C7.21663 22.6772 8.0853 20.2835 9.82263 18.0787C11.56 15.811 13.8319 14.0472 16.6383 12.7874ZM93.4372 49.8268C96.7782 48.315 99.6515 46.2362 102.057 43.5906L95.9429 40.2835C94.2724 41.9213 92.3012 43.2126 90.0293 44.1575C87.7574 45.0394 85.3519 45.4803 82.8127 45.4803C79.4717 45.4803 76.3979 44.7244 73.5914 43.2126C70.785 41.6378 68.5465 39.5276 66.876 36.8819C65.2055 34.2362 64.3702 31.3386 64.3702 28.189C64.3702 25.0394 65.2055 22.1417 66.876 19.4961C68.5465 16.8504 70.785 14.7717 73.5914 13.2598C76.3979 11.685 79.4717 10.8976 82.8127 10.8976C85.3519 10.8976 87.7574 11.3701 90.0293 12.315C92.3012 13.1968 94.2724 14.4567 95.9429 16.0945L102.057 12.7874C99.6515 10.1417 96.7782 8.09449 93.4372 6.64567C90.163 5.13386 86.6215 4.37795 82.8127 4.37795C78.2689 4.37795 74.0592 5.44882 70.1836 7.59055C66.308 9.73228 63.2342 12.6299 60.9623 16.2835C58.6904 19.937 57.5545 23.9055 57.5545 28.189C57.5545 32.4724 58.6904 36.4409 60.9623 40.0945C63.2342 43.748 66.308 46.6457 70.1836 48.7874C74.0592 50.9291 78.2689 52 82.8127 52C86.6215 52 90.163 51.2756 93.4372 49.8268ZM119.712 48.7874C123.654 50.9291 127.897 52 132.441 52C137.052 52 141.295 50.9291 145.17 48.7874C149.113 46.6457 152.22 43.748 154.492 40.0945C156.831 36.378 158 32.378 158 28.0945C158 23.8096 156.863 19.8614 154.591 16.2499C151.398 9.09924 143.652 4.05371 134.603 4.05371C134.479 4.05371 134.355 4.05466 134.231 4.05655C133.641 4.01885 133.044 4 132.441 4C127.897 4 123.654 5.10236 119.712 7.30709C115.836 9.44882 112.762 12.378 110.491 16.0945C108.219 19.748 107.083 23.748 107.083 28.0945C107.083 32.378 108.219 36.378 110.491 40.0945C112.762 43.748 115.836 46.6457 119.712 48.7874ZM113.924 29.0431C116.548 37.1307 124.813 43.0363 134.603 43.0363C138.847 43.0363 142.805 41.926 146.141 40.0092C144.882 41.2978 143.423 42.3971 141.763 43.3071C138.956 44.8819 135.849 45.6693 132.441 45.6693C129.1 45.6693 125.993 44.8819 123.12 43.3071C120.313 41.7323 118.075 39.5906 116.404 36.8819C114.903 34.4471 114.076 31.8342 113.924 29.0431Z" fill="#A4A174"/>
<path d="M145.854 24.5508C138.593 24.6828 132.577 19.3476 132.416 12.6341C132.256 5.9206 138.011 0.37119 145.272 0.239125C152.532 0.10706 158.548 5.44235 158.709 12.1558C158.87 18.8693 153.114 24.4187 145.854 24.5508Z" fill="white"/>
<path d="M139 17V8H141.013L143.178 15.3286H143.328L145.492 8H147.506V17H146.314L146.369 9.36286H146.177L143.931 17H142.575L140.315 9.36286H140.137L140.178 17H139Z" fill="#A4A174"/>
<path d="M154 8V9.02857H150.411V12.0886C150.713 11.9686 151.051 11.8786 151.425 11.8186C151.808 11.75 152.197 11.7071 152.589 11.69C152.982 11.6729 153.338 11.69 153.658 11.7414V12.7186L153.548 12.7957C153.301 12.7271 152.991 12.6929 152.617 12.6929C152.251 12.6929 151.872 12.7229 151.48 12.7829C151.087 12.8429 150.731 12.9414 150.411 13.0786V15.9714H154V17H149.206V8H154Z" fill="#A4A174"/>
</svg>
