<svg width="173" height="48" viewBox="0 0 173 48" fill="none" xmlns="http://www.w3.org/2000/svg">
<path fill-rule="evenodd" clip-rule="evenodd" d="M13.5312 37.5118C10.1233 34.8032 8.01848 31.4331 7.21663 27.4016H50.3159C50.4496 26.0157 50.5164 24.9449 50.5164 24.189C50.5164 19.8425 49.3805 15.874 47.1086 12.2835C44.8366 8.62992 41.7629 5.73228 37.8873 3.59055C34.0117 1.44882 29.802 0.377953 25.2582 0.377953C20.7144 0.377953 16.5047 1.44882 12.6291 3.59055C8.7535 5.73228 5.67975 8.62992 3.40785 12.2835C1.13595 15.874 0 19.8425 0 24.189C0 28.4724 1.13595 32.4409 3.40785 36.0945C5.67975 39.748 8.7535 42.6457 12.6291 44.7874C16.5047 46.9291 20.7144 48 25.2582 48C29.7352 48 33.8781 46.9606 37.6868 44.8819C41.4956 42.8032 44.536 40.0315 46.8079 36.5669L40.8942 33.3543C39.2237 35.874 37.0186 37.8583 34.279 39.3071C31.5393 40.7559 28.5324 41.4803 25.2582 41.4803C20.848 41.4803 16.939 40.1575 13.5312 37.5118ZM16.6383 8.7874C19.4448 7.46457 22.3181 6.80315 25.2582 6.80315C28.2651 6.80315 31.1384 7.46457 33.8781 8.7874C36.6845 10.0472 38.9564 11.811 40.6938 14.0787C42.4311 16.2835 43.2998 18.6772 43.2998 21.2598H7.21663C7.21663 18.6772 8.0853 16.2835 9.82263 14.0787C11.56 11.811 13.8319 10.0472 16.6383 8.7874ZM93.4372 45.8268C96.7782 44.315 99.6515 42.2362 102.057 39.5906L95.9429 36.2835C94.2724 37.9213 92.3012 39.2126 90.0293 40.1575C87.7574 41.0394 85.3519 41.4803 82.8127 41.4803C79.4717 41.4803 76.3979 40.7244 73.5914 39.2126C70.785 37.6378 68.5465 35.5276 66.876 32.8819C65.2055 30.2362 64.3702 27.3386 64.3702 24.189C64.3702 21.0394 65.2055 18.1417 66.876 15.4961C68.5465 12.8504 70.785 10.7717 73.5914 9.25984C76.3979 7.68504 79.4717 6.89764 82.8127 6.89764C85.3519 6.89764 87.7574 7.37008 90.0293 8.31496C92.3012 9.19685 94.2724 10.4567 95.9429 12.0945L102.057 8.7874C99.6515 6.14173 96.7782 4.09449 93.4372 2.64567C90.163 1.13386 86.6215 0.377953 82.8127 0.377953C78.2689 0.377953 74.0592 1.44882 70.1836 3.59055C66.308 5.73228 63.2342 8.62992 60.9623 12.2835C58.6904 15.937 57.5545 19.9055 57.5545 24.189C57.5545 28.4724 58.6904 32.4409 60.9623 36.0945C63.2342 39.748 66.308 42.6457 70.1836 44.7874C74.0592 46.9291 78.2689 48 82.8127 48C86.6215 48 90.163 47.2756 93.4372 45.8268ZM119.712 44.7874C123.654 46.9291 127.897 48 132.441 48C137.052 48 141.295 46.9291 145.17 44.7874C149.113 42.6457 152.22 39.748 154.492 36.0945C156.831 32.378 158 28.378 158 24.0945C158 19.8096 156.863 15.8614 154.591 12.2499C151.398 5.09924 143.652 0.0537061 134.603 0.0537061C134.479 0.0537061 134.355 0.0546559 134.231 0.0565478C133.641 0.0188493 133.044 0 132.441 0C127.897 0 123.654 1.10236 119.712 3.30709C115.836 5.44882 112.762 8.37795 110.491 12.0945C108.219 15.748 107.083 19.748 107.083 24.0945C107.083 28.378 108.219 32.378 110.491 36.0945C112.762 39.748 115.836 42.6457 119.712 44.7874ZM113.924 25.0431C116.548 33.1307 124.813 39.0363 134.603 39.0363C138.847 39.0363 142.805 37.926 146.141 36.0092C144.882 37.2978 143.423 38.3971 141.763 39.3071C138.956 40.8819 135.849 41.6693 132.441 41.6693C129.1 41.6693 125.993 40.8819 123.12 39.3071C120.313 37.7323 118.075 35.5906 116.404 32.8819C114.903 30.4471 114.076 27.8342 113.924 25.0431Z" fill="#A49E4A"/>
<path d="M145.854 24.5508C138.593 24.6828 132.577 19.3476 132.416 12.6341C132.256 5.9206 138.011 0.37119 145.272 0.239125C152.532 0.10706 158.548 5.44235 158.709 12.1558C158.87 18.8693 153.114 24.4187 145.854 24.5508Z" fill="white"/>
<path d="M139 17V8H141.013L143.178 15.3286H143.328L145.492 8H147.506V17H146.314L146.369 9.36286H146.177L143.931 17H142.575L140.315 9.36286H140.137L140.178 17H139Z" fill="#A49E4A"/>
<path d="M154 8V9.02857H150.411V12.0886C150.713 11.9686 151.051 11.8786 151.425 11.8186C151.808 11.75 152.197 11.7071 152.589 11.69C152.982 11.6729 153.338 11.69 153.658 11.7414V12.7186L153.548 12.7957C153.301 12.7271 152.991 12.6929 152.617 12.6929C152.251 12.6929 151.872 12.7229 151.48 12.7829C151.087 12.8429 150.731 12.9414 150.411 13.0786V15.9714H154V17H149.206V8H154Z" fill="#A49E4A"/>
</svg>
