<svg width="24" height="25" viewBox="0 0 24 25" fill="none" xmlns="http://www.w3.org/2000/svg">
<path d="M3 7.3252C3 6.79476 3.21071 6.28605 3.58579 5.91098C3.96086 5.53591 4.46957 5.3252 5 5.3252H19C19.5304 5.3252 20.0391 5.53591 20.4142 5.91098C20.7893 6.28605 21 6.79476 21 7.3252M3 7.3252V17.3252C3 17.8556 3.21071 18.3643 3.58579 18.7394C3.96086 19.1145 4.46957 19.3252 5 19.3252H19C19.5304 19.3252 20.0391 19.1145 20.4142 18.7394C20.7893 18.3643 21 17.8556 21 17.3252V7.3252M3 7.3252L12 13.3252L21 7.3252" stroke="#354052" stroke-width="2" stroke-linecap="round" stroke-linejoin="round"/>
</svg>
