<svg width="21" height="20" viewBox="0 0 21 20" fill="none" xmlns="http://www.w3.org/2000/svg">
<path fill-rule="evenodd" clip-rule="evenodd" d="M10.9692 4.16797C10.9692 3.90909 10.7594 3.69922 10.5005 3.69922C10.2416 3.69922 10.0317 3.90909 10.0317 4.16797V9.53174H4.66797C4.40909 9.53174 4.19922 9.7416 4.19922 10.0005C4.19922 10.2594 4.40909 10.4692 4.66797 10.4692H10.0317V15.8346C10.0317 16.0935 10.2416 16.3034 10.5005 16.3034C10.7594 16.3034 10.9692 16.0935 10.9692 15.8346V10.4692H16.3346C16.5935 10.4692 16.8034 10.2594 16.8034 10.0005C16.8034 9.7416 16.5935 9.53174 16.3346 9.53174H10.9692V4.16797Z" fill="#21211B"/>
</svg>
