<svg width="16" height="16" viewBox="0 0 16 16" fill="none" xmlns="http://www.w3.org/2000/svg">
<path fill-rule="evenodd" clip-rule="evenodd" d="M8.37476 3.33301C8.37476 3.1259 8.20686 2.95801 7.99976 2.95801C7.79265 2.95801 7.62476 3.1259 7.62476 3.33301V7.62476H3.33301C3.1259 7.62476 2.95801 7.79265 2.95801 7.99976C2.95801 8.20686 3.1259 8.37476 3.33301 8.37476H7.62476V12.6663C7.62476 12.8734 7.79265 13.0413 7.99976 13.0413C8.20686 13.0413 8.37476 12.8734 8.37476 12.6663V8.37476H12.6663C12.8734 8.37476 13.0413 8.20686 13.0413 7.99976C13.0413 7.79265 12.8734 7.62476 12.6663 7.62476H8.37476V3.33301Z" fill="#121212"/>
</svg>
