<svg width="24" height="24" viewBox="0 0 24 24" fill="none" xmlns="http://www.w3.org/2000/svg">
<g id="Icon/search">
<path id="Union" fill-rule="evenodd" clip-rule="evenodd" d="M5.5 10.6428C5.5 7.80249 7.80249 5.5 10.6428 5.5C13.483 5.5 15.7855 7.80249 15.7855 10.6428C15.7855 13.483 13.483 15.7855 10.6428 15.7855C7.80249 15.7855 5.5 13.483 5.5 10.6428ZM10.6428 4C6.97406 4 4 6.97406 4 10.6428C4 14.3114 6.97406 17.2855 10.6428 17.2855C12.2069 17.2855 13.6448 16.7449 14.7797 15.8404L19.3722 20.4328C19.6651 20.7257 20.1399 20.7257 20.4328 20.4328C20.7257 20.1399 20.7257 19.6651 20.4328 19.3722L15.8404 14.7797C16.7449 13.6448 17.2855 12.2069 17.2855 10.6428C17.2855 6.97406 14.3114 4 10.6428 4Z" fill="#FBFAEB"/>
</g>
</svg>
