<svg width="25" height="24" viewBox="0 0 25 24" fill="none" xmlns="http://www.w3.org/2000/svg">
<g id="Icon/cart">
<path id="Union" fill-rule="evenodd" clip-rule="evenodd" d="M9.71875 5.08301C9.71886 4.89519 9.8124 4.51412 10.1783 4.17532C10.5332 3.84673 11.2099 3.5 12.4688 3.5C13.7276 3.5 14.4043 3.84673 14.7592 4.17532C15.1251 4.51412 15.2186 4.89519 15.2188 5.08301V6.96094H9.71875V5.08301ZM8.21875 5.08301C8.21884 4.49296 8.47544 3.70779 9.15919 3.07468C9.85431 2.43105 10.9276 2 12.4688 2C14.0099 2 15.0832 2.43105 15.7783 3.07468C16.4621 3.70779 16.7187 4.49296 16.7188 5.08301V6.96094H19.5508C19.965 6.96094 20.3008 7.29672 20.3008 7.71094V18.744C20.3008 19.363 20.0529 19.9553 19.6136 20.391C19.1745 20.8266 18.5802 21.0702 17.9618 21.0702H6.83898C6.22059 21.0702 5.62632 20.8266 5.18722 20.391C4.74792 19.9553 4.5 19.363 4.5 18.744V7.71094C4.5 7.29672 4.83579 6.96094 5.25 6.96094H8.21875V5.08301ZM8.21875 10.9163V8.46094H6V18.744C6 18.9612 6.0869 19.1707 6.24358 19.3261C6.40046 19.4817 6.61452 19.5702 6.83898 19.5702H17.9618C18.1863 19.5702 18.4003 19.4817 18.5572 19.3261C18.7139 19.1707 18.8008 18.9612 18.8008 18.744V8.46094H16.7188V10.9163H15.2188V8.46094H9.71875V10.9163H8.21875Z" fill="#403F32"/>
</g>
</svg>
