<svg xmlns="http://www.w3.org/2000/svg" width="25" height="24" viewBox="0 0 25 24" fill="none">
  <path fill-rule="evenodd" clip-rule="evenodd" d="M10.3351 5.1407C10.3352 4.96834 10.4224 4.60282 10.7761 4.27535C11.1179 3.95887 11.7794 3.61538 13.0274 3.61538C14.2754 3.61538 14.9368 3.95887 15.2786 4.27535C15.6323 4.60282 15.7196 4.96834 15.7197 5.1407C15.7197 5.14081 15.7197 5.14092 15.7197 5.14103V6.96094H10.3351V5.14103C10.3351 5.14092 10.3351 5.14081 10.3351 5.1407ZM8.71967 5.1407C8.71976 4.53518 8.98263 3.73446 9.67861 3.09004C10.3868 2.4343 11.4754 2 13.0274 2C14.5794 2 15.6679 2.4343 16.3761 3.09004C17.0721 3.73446 17.335 4.53518 17.3351 5.1407C17.3351 5.14081 17.3351 5.14092 17.3351 5.14103V6.96094H20.1094C20.5555 6.96094 20.9171 7.32255 20.9171 7.76863V18.8017C20.9171 19.4361 20.663 20.0431 20.2128 20.4897C19.7628 20.936 19.154 21.1856 18.5204 21.1856H7.39758C6.76405 21.1856 6.15516 20.936 5.7052 20.4897C5.25502 20.0431 5.00092 19.4361 5.00092 18.8017V7.76863C5.00092 7.32255 5.36253 6.96094 5.80861 6.96094H8.71967V5.14103C8.71967 5.14092 8.71967 5.14081 8.71967 5.1407ZM8.71967 10.974V8.57632H6.6163V18.8017C6.6163 19.0034 6.69701 19.1982 6.84282 19.3428C6.98884 19.4877 7.18827 19.5702 7.39758 19.5702H18.5204C18.7297 19.5702 18.9292 19.4877 19.0752 19.3428C19.221 19.1982 19.3017 19.0034 19.3017 18.8017V8.57632H17.3351V10.974H15.7197V8.57632H10.3351V10.974H8.71967Z" fill="#121212"/>
</svg>
