<svg xmlns="http://www.w3.org/2000/svg" width="24" height="24" fill="none"><path fill="#121212" fill-rule="evenodd" d="M2 4.25a.75.75 0 0 0 0 1.5h10.25v10.5H9.646a2.751 2.751 0 0 0-5.292 0H3.75V13a.75.75 0 0 0-1.5 0v4c0 .414.336.75.75.75h1.354a2.751 2.751 0 0 0 5.292 0h4.708a2.751 2.751 0 0 0 5.293 0H21a.75.75 0 0 0 .75-.75v-5.988a.748.748 0 0 0-.113-.408l-2.994-4.99A.75.75 0 0 0 18 5.25h-4.25V5a.75.75 0 0 0-.75-.75H2Zm17.646 12h.604v-4.5h-6.5v4.5h.604a2.751 2.751 0 0 1 5.293 0ZM15.75 17a1.25 1.25 0 1 1 2.5 0 1.25 1.25 0 0 1-2.5 0Zm-10 0a1.25 1.25 0 1 0 2.5 0 1.25 1.25 0 0 0-2.5 0Zm8-6.75v-3.5h3.825l2.1 3.5H13.75Z" clip-rule="evenodd"/></svg>